<?xml version="1.0" encoding="UTF-8"?>
<!DOCTYPE svg PUBLIC "-//W3C//DTD SVG 1.1//EN" "http://www.w3.org/Graphics/SVG/1.1/DTD/svg11.dtd">
<!-- Creator: CorelDRAW 2020 (64-Bit) -->
<svg xmlns="http://www.w3.org/2000/svg" xml:space="preserve" width="47px" height="47px" version="1.1" style="shape-rendering:geometricPrecision; text-rendering:geometricPrecision; image-rendering:optimizeQuality; fill-rule:evenodd; clip-rule:evenodd"
viewBox="0 0 47 47"
 xmlns:xlink="http://www.w3.org/1999/xlink"
 xmlns:xodm="http://www.corel.com/coreldraw/odm/2003">
 <defs>
  <style type="text/css">
   <![CDATA[
    .fil12 {fill:black}
    .fil3 {fill:#080808}
    .fil1 {fill:#17120C}
    .fil6 {fill:#191919}
    .fil10 {fill:#2A2A2A}
    .fil7 {fill:#454545}
    .fil8 {fill:#AC191B}
    .fil13 {fill:#B3191C}
    .fil9 {fill:#B81C22}
    .fil11 {fill:#D41B21}
    .fil0 {fill:#EA5D21}
    .fil14 {fill:#EA6126}
    .fil15 {fill:#F4F3F2}
    .fil16 {fill:#F6F6F6}
    .fil5 {fill:#F9B615}
    .fil4 {fill:#FBFBFB}
    .fil2 {fill:#FDFDFD}
   ]]>
  </style>
 </defs>
 <g id="Слой_x0020_1">
  <metadata id="CorelCorpID_0Corel-Layer"/>
  <g id="_2308523751408">
   <path class="fil0" d="M25.41 1.48c0.77,0.09 1.76,1.01 2.21,1.46 2.22,2.21 2.05,4.45 4.53,6.09 1.87,1.25 4.03,0.21 6.23,2.45 1.51,1.55 1.16,2.9 1.23,4.26 2.35,-0.24 0.87,-0.21 2.24,0.09 0.77,0.18 1.15,0.57 1.51,1.14 1.35,2.21 0.73,2.6 0.26,4.01 1.04,-0.05 1.69,0.02 2.34,0.49 1.16,0.84 0.91,1.2 1.04,1.53 0.39,1.08 0.39,1.3 0.01,2.38 -0.08,0.23 -0.04,0.09 -0.05,0.19 -0.05,0.52 0.05,0.67 -0.67,1.42 -0.79,0.81 -2.68,1.77 -4.12,0.84 -0.24,-0.16 -0.27,-0.22 -0.42,-0.33 -0.45,-0.31 -0.66,-0.26 -1.12,-0.94 -0.68,-1 -0.46,-0.35 -1.84,-0.94l-0.13 0.11 0.32 0.35c-0.18,0.29 -0.25,0.21 -0.39,0.52l-0.73 1.99c0.97,0.26 1,0.07 1.64,0.81 0.51,0.6 0.72,0.73 0.45,1.87 -0.22,0.94 -0.3,1.06 -0.94,1.51 -0.36,0.25 -1.15,0.75 -1.66,0.72 -0.32,-0.96 0.31,-0.72 0.03,-1.88 -0.46,-0.15 -0.94,-0.1 -1.4,-0.3 -0.65,2.43 -2.76,1.43 -2.61,3.35 0.84,0.39 0.44,0.06 0.95,0.76 0.25,0.34 0.49,0.48 0.89,0.7 0.84,0.48 1.22,1.04 2.29,1.05 0.04,-0.66 0.41,-1.16 0.75,-1.63 0.31,-0.44 0.78,-0.8 1.43,-0.91l0.95 -0.03c2.91,-0.32 4.88,3.41 2.63,5.71 -0.88,0.91 -0.87,0.71 -1.3,0.51 -0.27,0.74 -0.28,0.33 -0.84,0.62 0.03,1.48 1.27,1.14 0.39,3.69 -0.89,2.56 -4.49,2.27 -5.89,-0.14 -0.86,-1.48 0.05,-3.38 -0.14,-3.81 -0.66,-0.68 -3.63,-2.45 -4.71,-3.06 -1.33,-0.75 -3.51,-2.79 -4.68,-3.17 -1.56,0.79 -0.87,2.52 -3.28,1.73l-1.05 -0.3c-0.44,-0.07 -0.62,-0.06 -1.1,0.02 -0.2,0.03 -0.89,0.17 -1.16,0.16 -0.6,-0.03 -0.43,-0.29 -0.94,-0.21 -0.05,0.01 -0.76,0.32 -0.96,0.39 -0.97,0.34 -5.54,2.71 -5.96,3.05 -0.09,1.14 0.39,0.9 0.45,2.14 0.11,2.09 -1.21,3.78 -3.46,3.82 -1.47,0.02 -2.38,-1.06 -2.97,-1.94 -1.34,-1.99 -0.51,-2.64 -0.16,-3.58 -0.31,-0.27 -0.72,-0.43 -1.06,-0.68 -0.52,-0.38 -1.17,-1.46 -1.28,-2.15 -0.21,-1.34 0.14,-3.04 1.33,-3.75 0.63,-0.38 2.2,-0.56 2.87,-0.19 2.36,1.29 1.53,3.31 4.04,1.98l4.71 -2.05c-0.56,-1.25 0.34,-1.5 -0.27,-3.3 -0.32,-0.96 -0.25,-0.72 -1.11,-1.07 -1.45,-0.59 -3.27,-1.76 -5.3,-2.52 -0.92,-0.33 -1.21,-0.7 -2.58,-0.66 1.28,1.4 -2.27,3.3 -4.22,2.57 -0.34,-0.13 0,0 -0.22,-0.11l-0.44 -0.2c-1.17,-0.57 -1.96,-2.86 -1.32,-4.5 0.42,-1.07 0.81,-1.47 1.71,-2.1 0.29,-0.2 0.44,-0.21 0.77,-0.39 0.08,-1.36 -0.34,-2.7 0.38,-3.73 0.99,-1.44 1.74,-1.29 2.65,-1.47 -0.13,-1.51 -0.17,-2.66 0.53,-3.75 0.46,-0.7 0.5,-0.56 1.25,-0.94 2.55,-1.3 1.74,-0.29 3.64,-0.76 1.93,-0.48 2.51,-2.61 3.41,-4.27 0.53,-0.99 0.24,-0.75 1.23,-2.08 1.19,-1.6 3.35,-3.34 5.47,-3.26 0.7,0.03 1.49,-0.19 2.16,-0.02l1.56 0.64zm-25.08 45.47l47 0 0 -46.75 -47 0 0 46.75z"/>
   <path class="fil1" d="M6.59 39.98l0.18 0.67c0,0.02 0.02,0.06 0.03,0.08 0.83,-1.4 -1.55,-0.85 -2.37,-2.02 -1.91,-2.72 0.33,-6.04 3,-4.47l2.26 2.46c1.24,-0.07 6.7,-2.92 7.24,-2.9 0.65,0.03 1.47,1.21 1.7,1.68 -0.72,0.72 -5.92,2.54 -7.27,3.83 -0.86,0.82 0.06,1.71 0.08,2.88 0.05,3.5 -4.46,4.07 -5.71,0.46 -0.16,-0.46 -0.2,-1.06 0.03,-1.5 0.11,-0.22 0.64,-1.05 0.83,-1.17zm19.81 -5.72c0.38,-0.45 0.66,-0.23 0.9,-0.74 0.16,-0.36 0.08,-1.2 0.08,-1.63 0.5,0.17 3.69,2.29 3.93,2.52 0.37,0.36 0.46,1.07 0.84,1.36 0.68,0.51 1.18,0 1.81,0.25 1.18,0.46 2.73,2.56 4.39,2.08 -0.11,-0.31 -0.61,-0.24 -0.67,-0.28 0.83,-0.41 0.43,-2.01 2.23,-2.56 2.11,-0.64 3.79,0.99 3.65,3.15 -0.06,0.92 -0.43,1.13 -0.88,1.57 -0.66,0.67 -0.55,0.57 -1.58,0.7 -0.86,0.12 -1.32,0.36 -1.32,1.19 0.02,-0.03 0.04,-0.1 0.05,-0.08 0.13,0.32 -0.14,-0.47 0.81,-0.75 -0.6,1.7 0.75,1.27 0.5,3.05 -0.16,1.11 -0.83,2.13 -2.01,2.24 -1.15,0.11 -2.24,-0.53 -2.8,-1.43 -1.1,-1.78 -0.2,-1.96 -0.11,-3.52 0.04,-0.66 -0.25,-0.69 -0.87,-1.12 -0.46,-0.32 -0.88,-0.58 -1.33,-0.87 -0.88,-0.54 -1.73,-1.06 -2.65,-1.63 -0.96,-0.58 -1.7,-1.15 -2.51,-1.76 -0.45,-0.33 -0.72,-0.53 -1.2,-0.87 -0.37,-0.27 -0.96,-0.59 -1.26,-0.87zm-3.48 -0.61c-0.18,-2.06 1.55,-0.71 0.86,0.01 -0.21,0.21 -0.57,0.07 -0.86,-0.01zm1.17 0.04c-0.14,-0.81 -0.21,-1.2 0.66,-1.14l0.13 0.85c-0.24,0.14 -0.48,0.3 -0.79,0.29zm-1.39 -0.12l-0.98 -0.17c-0.02,-0.46 -0.12,-0.96 0.47,-0.98 0.66,-0.02 0.51,0.6 0.51,1.15zm-1.22 -1.17l0.07 0.83c-0.49,0.12 -0.69,-0.03 -1.08,-0.16 0.02,-0.7 0.2,-1.12 1.01,-0.67zm-1.24 -0.1l0.03 0.71 -0.95 -0.02c-0.1,-0.85 0.27,-0.85 0.92,-0.69zm-2.07 0.22c0.55,-0.29 1.1,-0.34 0.88,0.56l-0.55 0.22c-0.28,-0.42 -0.21,-0.25 -0.33,-0.78zm3.25 -2.45c1.11,-0.31 1.38,0.2 1.09,1.34 -0.47,0.15 -0.8,0.06 -1.18,-0.07 -0.09,-0.48 -0.04,-0.9 0.09,-1.27zm1.35 1.01c-0.13,-0.89 0.2,-1.19 1.06,-1.12 0.12,0.29 0.49,0.94 0.24,1.29 -0.32,0.43 -1.02,0.06 -1.3,-0.17zm-1.86 0.23c-0.38,0.22 -0.75,0.04 -1.12,-0.15 -0.3,-1.55 1.59,-1.86 1.32,-0.32 -0.1,0.6 -0.03,0.29 -0.2,0.47zm-2.68 -0.59c-0.06,-1.28 0.56,-1.42 1.4,-0.73 0.05,0.41 -0.02,0.8 -0.14,1.1 -0.6,0.16 -0.85,-0.02 -1.26,-0.37zm6.9 -0.98c0.18,0.28 0.37,0.6 0.29,1.04 -0.36,0.32 -0.96,0.57 -1.18,-0.08 -0.29,-0.83 0.17,-1.06 0.89,-0.96zm-7.2 1c-0.99,-0.04 -1.03,-0.71 -0.63,-1.6 0.56,-0.06 0.57,0.08 0.85,0.36 0.05,0.57 -0.08,0.77 -0.22,1.24zm7.41 -1.27c0.31,-0.15 0.47,-0.2 0.88,-0.11 0.13,0.44 0.19,0.71 0.04,1.15 -0.26,0.02 -0.88,0.33 -0.92,-1.04zm3.02 1.8c1.12,-0.04 2.48,-1.38 3.36,-1.4 1.25,1.26 0.04,3.94 -0.26,4.25 -0.47,-0.12 -1.45,-0.88 -1.96,-1.19l-1.54 -1.12c-0.19,-0.3 0.24,-0.1 -0.2,-0.25 -0.68,0.11 -0.15,0.04 -0.37,-0.11 0.18,-3.36 0.61,-2.69 1.85,-3.2 0.46,-0.19 0.58,-0.42 1,-0.75 0.08,0.09 0.08,0.07 0.16,0.25l0.34 0.88c0.21,0.44 0.43,0.61 0.57,0.99 -0.24,0.26 -2.45,1.33 -2.95,1.65zm-12.46 -3.05c1.76,-0.08 0.78,1.7 1.04,2.25 0.4,0.5 0.78,0.4 1.03,1.28 0.26,0.9 -0.26,0.47 0.32,1.64l0.11 0.22c1.72,-0.64 1.57,-0.37 3.3,0.03 5.39,1.25 4.11,-2.25 4.43,-2.85 0.1,-0.18 0.31,-0.27 0.4,-0.61 0.1,-0.37 0,-0.5 -0.03,-0.84 -0.08,-0.94 0.28,-0.99 1.11,-0.98 -0.14,1.1 -0.53,1.76 -0.53,3.09 0.01,3.29 0.24,1.28 -1.91,3.35 -0.46,0.44 -0.4,0.56 -0.77,1.07 -0.53,0.73 -1.85,-0.14 -2.72,-0.24 -1.32,-0.16 -1.98,0.87 -2.79,-0.27 -1.25,-1.79 -0.66,-0.82 -1.72,-1.83 -1.31,-1.26 -0.23,-0.91 -0.42,-2.57 -0.1,-0.92 -0.61,-1.9 -0.85,-2.74zm18.69 -4.61c1.61,0.33 2.51,0.66 3.07,2.1 0.73,1.87 -1.28,2.64 -0.7,3.9l0.19 -0.83c0.63,0.33 0.32,0.33 1.27,0.6 1.47,0.42 1.37,2.65 -0.4,3.18 0.23,-2.81 -2.22,-0.64 -2.23,-2.93 -0.01,-0.61 -0.02,-1.11 -0.15,-1.67 -0.34,-1.52 -2.68,-3.62 -1.88,-4.83 0.49,0.1 0.29,0.02 0.6,0.44 0.37,0.52 0.81,1.16 1.57,1.09 -0.31,-0.15 -0.43,-0.12 -0.75,-0.34 -0.48,-0.31 -0.52,-0.61 -0.59,-0.71zm-1.01 7.19c1.32,-1.97 -1.55,-2.27 -1.33,-5.7 0.02,-0.18 0.03,-0.41 0.08,-0.56 0.15,-0.49 0.05,-0.23 0.27,-0.47 0.13,1.96 0.31,1.31 0.99,2.33 0.26,0.4 0.2,0.51 0.35,0.86 0.14,-0.83 -0.34,-1.04 -0.8,-1.52 -0.43,-0.45 -0.67,-1.61 -0.09,-2.12 0.58,0.18 0.28,0.48 0.77,1.45 0.63,1.25 2.13,2.75 1.79,5.15 -0.22,1.52 -0.81,1.97 -1.88,2.64 -2.07,1.3 -0.23,2.68 -0.23,2.69 -0.61,0.54 -2.02,0.04 -1.68,-1.76 0.09,-0.5 0.42,-0.94 0.57,-1.43 0.25,-0.86 0.07,-1.08 0.04,-1.88 0.39,0.35 0.28,0.63 0.43,1.17 0.16,-2.33 -1.45,-1.38 -2.17,-3.82 -0.38,-1.28 -0.05,-1.52 0.34,-2.51 0.23,-0.59 0.48,-1.87 1.19,-1.74 0.01,0.03 0.03,0.05 0.03,0.1 0,0.05 0.03,0.07 0.03,0.09l-0.07 0.66c-0.45,2.67 0.59,3.28 1.28,4.51 0.51,0.88 0.39,1.01 0.09,1.86zm-23.5 -8.58c0.39,0.22 0.35,0.32 0.69,0.62l1.74 1.2c0.63,0.32 0.56,0.03 0.72,0.7 -0.38,0 -3.66,-1.15 -4.35,-1.84 -0.86,-0.87 -0.16,-1.67 -0.1,-1.52l0.6 0.29c0.31,0.3 0.29,0.3 0.7,0.55zm18.82 2.48l0.11 -1.06c0.33,0.43 0.26,1.25 0.56,1.76 0.32,0.55 0.72,0.92 0.37,1.84 -0.19,0.53 -0.7,0.92 -1.4,0.99 -1.22,0.14 -1.09,-0.3 -2.25,0.2 -0.05,-1.1 0.34,-0.53 0.59,-1.41 -0.04,0.02 -0.08,0.01 -0.09,0.06l-0.31 0.24c-0.66,0.64 -0.42,0.99 -0.32,1.57 -0.03,0.02 -0.08,0 -0.1,0.05l-0.37 0.17c-0.39,0.19 -0.07,0.04 -0.37,0.23l-1.39 0.48c-0.24,0 -0.16,-0.11 -0.62,-0.05 -0.77,0.11 -0.1,0.3 -0.99,0.09 -0.68,-0.15 -0.5,0.01 -0.91,0.03 -0.4,0.02 -0.27,-0.22 -1.04,-0.14 -0.82,0.08 -0.27,0.19 -0.94,-0.18 -0.36,-0.2 -0.7,-0.18 -1.03,-0.06l-0.15 -0.23c-0.29,-0.39 -0.42,-0.35 -1.01,-0.44 -0.15,-1.17 -0.04,-1.37 -1.14,-1.66 0.36,0.59 0.83,0.26 0.96,1.08 -1.61,-0.7 -1.59,-0.03 -2.27,-0.53 -0.37,-0.27 -0.93,-1.39 -0.51,-1.85 0.32,-0.35 1.13,-0.93 1.76,-1.19 1.01,-0.41 1.05,0.38 2.24,0.37 1.79,-0.02 2.44,-1.92 2.19,-3.74 -0.18,-1.28 -0.64,-1.46 1.84,-3.54 3.37,-2.83 4.58,-2.06 7.53,0.4 1.65,1.38 2.09,2.01 1.92,3.86 -0.1,1.13 -0.8,3.72 -1.4,4.36 -0.36,-0.88 -1.15,-2.07 -0.95,-3.22 0.07,-0.38 0.54,-0.86 0.72,-1.37 0.21,-0.59 0.27,-1.24 0.16,-1.86 -0.13,0.14 -0.13,-0.01 -0.2,0.63 -0.24,2.44 -1.92,2.88 -1.19,4.12zm-13.21 3.79c-0.14,0.14 0.31,0.47 -1.06,-0.23 -1.95,-1 -3.77,-1.94 -5.84,-2.71 -0.93,-0.34 -1.68,-0.85 -2.63,-0.38l0.68 0.21c-0.8,0.49 0.18,1.59 -2.13,2.38 -3.26,1.11 -4.38,-2.6 -3.18,-4.64 0.79,-1.35 2.28,-1.15 2.58,-1.92 -0.36,-0.13 0.39,-0.14 -0.16,0.07 -0.29,0.11 0.05,0.17 -0.19,0.05 0.24,-0.93 -0.89,-4.99 2.55,-4.74 0.93,0.06 1.93,0.87 2.28,1.49 1.46,2.59 -1.82,3.97 0.72,5.37 1.25,0.69 3.49,1.43 3.94,1.68 0.95,0.53 0.23,1.46 1.23,2.68 0.5,0.62 0.73,0.15 1.21,0.69zm-2.35 -6.81c-0.01,0.21 0.03,0.51 -0.31,0.84 -0.81,-1.36 -0.32,-3.39 1.28,-4.57 0.89,-0.66 0.9,-0.98 1.61,-1.68 0.4,-0.38 1.58,-1.05 1.82,-1.36 -1.62,0.71 -1.74,1.16 -2.77,2.24 -1.19,1.26 -1.18,0.44 -2.1,2.28 -0.04,0.09 -0.08,0.18 -0.15,0.26 -0.24,0.3 0.08,0 -0.25,0.24 -0.12,-3.13 2.48,-5.94 4.77,-6.98 0.65,-0.3 2.31,-0.94 2.96,-0.87 1.08,-0.74 4.02,-0.12 5.08,0.15 3.59,0.93 6.25,3.46 7.29,7.01 0.4,1.37 0.5,1.49 -0.12,1.94 -0.11,-1.65 -0.65,-3.32 -1.54,-4.19 -0.5,-0.48 -2.62,-2.24 -3.33,-2.35 0.53,0.36 0.86,0.54 1.38,1 0.45,0.4 0.77,0.67 1.24,1.08 0.87,0.74 1.58,1.44 1.69,3.08 -0.58,-0.28 -0.83,-0.85 -1.13,-1.19 -0.98,-1.12 -2.22,-1.97 -3.69,-2.53 -1.88,-0.71 -3.41,-0.86 -5.44,-0.63l-1.28 0.27c-0.52,-0.08 -0.12,0.12 -0.47,-0.24 0.81,-0.26 1.24,-0.55 2.24,-0.75 -0.58,-0.24 -2.33,0.74 -2.72,1 -1.59,1.06 -1.09,0.82 -2.13,1.9 -0.6,0.62 -1.67,1.09 -2.34,1.69 -0.27,0.24 -0.63,0.71 -0.86,1.09 -0.37,0.62 -0.37,0.93 -0.73,1.27zm25.32 4.05l-0.6 0.25c-0.55,-1.68 -1.05,-1.62 -1.58,-2.37 0.55,-0.39 1.03,-0.53 1.34,-1l-0.06 -0.05c-0.52,0.25 -0.87,0.74 -1.58,0.9 -0.68,0.16 -1.57,-0.15 -1.92,-0.4 0.03,-0.64 0.32,-0.57 0.68,-1.08 0.36,0.07 2.44,-2.16 2.8,-3.35 0.45,-1.45 0.81,-0.92 0.68,-3.06 -0.01,-0.2 -0.06,-0.53 -0.11,-0.65 -0.12,-0.28 -0.01,-0.09 -0.17,-0.28l-0.21 -0.18c-0.04,-0.04 -0.08,-0.07 -0.12,-0.1 0,1.1 0.28,1.44 -0.02,2.62 -0.81,3.21 -3.48,3.97 -3.81,4.54 0.18,1.64 -0.75,2.52 -2.01,1.65 -0.03,-0.97 0.21,-0.94 0.93,-1.12 -0.23,-0.31 -0.65,-0.16 -0.01,-1 0.63,-0.05 0.45,-0.05 0.95,0.17 -0.07,-0.48 0.23,-0.31 -0.55,-0.41 -0.49,-0.27 -0.48,-1.37 -0.66,-1.9 -0.59,-1.69 -0.44,-1.35 -1.31,-2.7 -1.98,-3.05 -6.5,-4.95 -10.07,-4.56 -1.35,0.15 -2.97,0.61 -4.14,1.19 -0.51,0.25 -1.31,0.81 -1.6,1.07 -0.59,0.51 -0.55,0.35 -1,0.95 -0.68,0.91 -0.27,-0.07 -1.45,1.96 -1.05,1.81 -0.85,2.52 -0.6,4.41 0.22,1.62 0.56,1.59 0.59,2.13l0.24 -0.51c0.9,-3.86 3.24,-3.94 4.05,-4.91 0.89,-1.08 0.92,-1.38 2.62,-1.91 1.32,-0.41 2.53,-0.61 4.06,-0.48 -0.27,0.34 -1.35,0.87 -1.96,1.5 -0.59,0.61 -1.1,1.07 -1.66,1.75 -1.18,1.45 -0.45,1.18 -2.12,1.25 -1.04,0.04 -2.19,0.21 -2.77,0.79 -0.15,1.35 -0.15,1.94 0.36,3.04l-1.16 0.69c0.06,-0.65 0.23,-2.32 -0.4,-2.6 0.06,0.49 0.79,2.21 -0.18,3.62 -0.03,-0.02 -0.06,-0.08 -0.07,-0.06 -0.01,0.04 -0.64,-0.65 -0.74,-1.58 -0.94,-0.08 -0.79,-0.14 -1.34,-0.47 -0.03,-0.02 -0.06,-0.03 -0.08,-0.05l-1.04 -0.67c-0.25,-0.17 -0.52,-0.33 -0.78,-0.54 -2.42,-1.8 -0.01,-1.44 -1.11,-4.03 -0.67,-1.57 -1.74,-1.34 -1.98,-1.75 -0.17,-0.86 0.54,-2.22 0.95,-2.54 1.89,-1.48 4.4,0.71 7.36,-2.98 0.04,-0.13 0.17,-0.41 0.19,-0.46 0.15,-0.41 0.12,-0.07 0.1,-0.52 -0.3,0.29 -0.51,0.73 -0.76,1.09 -2,2.83 -4.87,1.51 -6.59,2.57 -0.9,0.56 -0.89,1.12 -1.44,2.07 -0.58,-0.97 0.05,-2.68 0.55,-3.45 0.59,-0.89 1.85,-0.89 3.19,-0.97 4.89,-0.28 3.66,-5.44 8.02,-8.57 2.12,-1.53 3.84,-1.61 6.68,-0.76 0.76,-0.58 -0.2,0.6 0.11,-0.23 0.25,-0.66 -0.28,0.25 0.06,-0.21l-1.56 -0.64c-0.67,-0.17 -1.46,0.05 -2.16,0.02 -2.12,-0.08 -4.28,1.66 -5.47,3.26 -0.99,1.33 -0.7,1.09 -1.23,2.08 -0.9,1.66 -1.48,3.79 -3.41,4.27 -1.9,0.47 -1.09,-0.54 -3.64,0.76 -0.75,0.38 -0.79,0.24 -1.25,0.94 -0.7,1.09 -0.66,2.24 -0.53,3.75 -0.91,0.18 -1.66,0.03 -2.65,1.47 -0.72,1.03 -0.3,2.37 -0.38,3.73 -0.33,0.18 -0.48,0.19 -0.77,0.39 -0.9,0.63 -1.29,1.03 -1.71,2.1 -0.64,1.64 0.15,3.93 1.32,4.5l0.44 0.2c0.22,0.11 -0.12,-0.02 0.22,0.11 1.95,0.73 5.5,-1.17 4.22,-2.57 1.37,-0.04 1.66,0.33 2.58,0.66 2.03,0.76 3.85,1.93 5.3,2.52 0.86,0.35 0.79,0.11 1.11,1.07 0.61,1.8 -0.29,2.05 0.27,3.3l-4.71 2.05c-2.51,1.33 -1.68,-0.69 -4.04,-1.98 -0.67,-0.37 -2.24,-0.19 -2.87,0.19 -1.19,0.71 -1.54,2.41 -1.33,3.75 0.11,0.69 0.76,1.77 1.28,2.15 0.34,0.25 0.75,0.41 1.06,0.68 -0.35,0.94 -1.18,1.59 0.16,3.58 0.59,0.88 1.5,1.96 2.97,1.94 2.25,-0.04 3.57,-1.73 3.46,-3.82 -0.06,-1.24 -0.54,-1 -0.45,-2.14 0.42,-0.34 4.99,-2.71 5.96,-3.05 0.2,-0.07 0.91,-0.38 0.96,-0.39 0.51,-0.08 0.34,0.18 0.94,0.21 0.27,0.01 0.96,-0.13 1.16,-0.16 0.48,-0.08 0.66,-0.09 1.1,-0.02l1.05 0.3c2.41,0.79 1.72,-0.94 3.28,-1.73 1.17,0.38 3.35,2.42 4.68,3.17 1.08,0.61 4.05,2.38 4.71,3.06 0.19,0.43 -0.72,2.33 0.14,3.81 1.4,2.41 5,2.7 5.89,0.14 0.88,-2.55 -0.36,-2.21 -0.39,-3.69 0.56,-0.29 0.57,0.12 0.84,-0.62 0.43,0.2 0.42,0.4 1.3,-0.51 2.25,-2.3 0.28,-6.03 -2.63,-5.71l-0.95 0.03c-0.65,0.11 -1.12,0.47 -1.43,0.91 -0.34,0.47 -0.71,0.97 -0.75,1.63 -1.07,-0.01 -1.45,-0.57 -2.29,-1.05 -0.4,-0.22 -0.64,-0.36 -0.89,-0.7 -0.51,-0.7 -0.11,-0.37 -0.95,-0.76 -0.15,-1.92 1.96,-0.92 2.61,-3.35 0.46,0.2 0.94,0.15 1.4,0.3 0.28,1.16 -0.35,0.92 -0.03,1.88 0.51,0.03 1.3,-0.47 1.66,-0.72 0.64,-0.45 0.72,-0.57 0.94,-1.51 0.27,-1.14 0.06,-1.27 -0.45,-1.87 -0.64,-0.74 -0.67,-0.55 -1.64,-0.81l0.73 -1.99c0.14,-0.31 0.21,-0.23 0.39,-0.52l-0.32 -0.35z"/>
   <path class="fil2" d="M22.83 26.71c-0.56,0.06 -0.56,-0.11 -0.89,-0.1 -0.5,0.02 -0.19,0.34 -1.02,0.13 -0.1,-0.42 0.14,-2.92 0.46,-3.42 0.19,-0.28 0.05,-0.13 0.32,-0.3 0.02,-0.02 0.05,-0.04 0.08,-0.05l0.42 -0.19c0.4,0.72 0.24,1.43 0.71,2.95 0.23,0.75 -0.07,0.65 -0.08,0.98zm1.31 -1.79c-0.21,-0.37 0.36,0.07 -0.28,-0.75 -0.25,-0.3 -0.44,-0.56 -0.62,-0.98 -0.34,-0.79 -0.4,-1.92 0.03,-2.73 -0.02,-0.01 -0.05,-0.02 -0.05,0 -0.01,0.02 -0.05,0 -0.06,0l-0.38 0c0.44,-0.81 1.41,-0.97 2.44,-0.47 1.73,0.83 1.51,-0.17 2.72,-0.01 0.14,0.19 0.23,0.29 0.32,0.57 -0.27,-0.17 -0.29,-0.28 -0.73,-0.37 0.52,1.12 0.97,1.42 0.1,3.66 -0.12,0.32 -0.13,0.51 -0.41,0.69 -0.03,0.02 -0.89,0.32 -0.9,0.32 -0.78,0.14 -1.44,-0.29 -2.18,0.07zm-1.02 -6.63c0.16,-0.44 0.42,-0.7 0.72,-0.94 1.2,-0.95 1.66,0.3 1.98,0.45 0.55,0.03 1,-0.2 1.34,-0.02 -0.29,0.27 -0.37,0.19 -0.68,0.39 -1.47,0.93 -1.13,-0.06 -2.05,-0.32 -0.57,-0.16 -0.86,0.26 -1.31,0.44zm5.78 6.41c-0.73,-1.24 0.95,-1.68 1.19,-4.12 0.07,-0.64 0.07,-0.49 0.2,-0.63 0.11,0.62 0.05,1.27 -0.16,1.86 -0.18,0.51 -0.65,0.99 -0.72,1.37 -0.2,1.15 0.59,2.34 0.95,3.22 0.6,-0.64 1.3,-3.23 1.4,-4.36 0.17,-1.85 -0.27,-2.48 -1.92,-3.86 -2.95,-2.46 -4.16,-3.23 -7.53,-0.4 -2.48,2.08 -2.02,2.26 -1.84,3.54 0.25,1.82 -0.4,3.72 -2.19,3.74 -1.19,0.01 -1.23,-0.78 -2.24,-0.37 -0.63,0.26 -1.44,0.84 -1.76,1.19 -0.42,0.46 0.14,1.58 0.51,1.85 0.68,0.5 0.66,-0.17 2.27,0.53 -0.13,-0.82 -0.6,-0.49 -0.96,-1.08 1.1,0.29 0.99,0.49 1.14,1.66 0.59,0.09 0.72,0.05 1.01,0.44l0.15 0.23c0.33,-0.12 0.67,-0.14 1.03,0.06 0.67,0.37 0.12,0.26 0.94,0.18 0.77,-0.08 0.64,0.16 1.04,0.14 0.41,-0.02 0.23,-0.18 0.91,-0.03 0.89,0.21 0.22,0.02 0.99,-0.09 0.46,-0.06 0.38,0.05 0.62,0.05l1.39 -0.48c0.3,-0.19 -0.02,-0.04 0.37,-0.23l0.37 -0.17c0.02,-0.05 0.07,-0.03 0.1,-0.05 -0.1,-0.58 -0.34,-0.93 0.32,-1.57l0.31 -0.24c0.01,-0.05 0.05,-0.04 0.09,-0.06 -0.25,0.88 -0.64,0.31 -0.59,1.41 1.16,-0.5 1.03,-0.06 2.25,-0.2 0.7,-0.07 1.21,-0.46 1.4,-0.99 0.35,-0.92 -0.05,-1.29 -0.37,-1.84 -0.3,-0.51 -0.23,-1.33 -0.56,-1.76l-0.11 1.06z"/>
   <path class="fil2" d="M43.56 38.41c0.14,-2.16 -1.54,-3.79 -3.65,-3.15 -1.8,0.55 -1.4,2.15 -2.23,2.56 0.06,0.04 0.56,-0.03 0.67,0.28 -1.66,0.48 -3.21,-1.62 -4.39,-2.08 -0.63,-0.25 -1.13,0.26 -1.81,-0.25 -0.38,-0.29 -0.47,-1 -0.84,-1.36 -0.24,-0.23 -3.43,-2.35 -3.93,-2.52 0,0.43 0.08,1.27 -0.08,1.63 -0.24,0.51 -0.52,0.29 -0.9,0.74 0.3,0.28 0.89,0.6 1.26,0.87 0.48,0.34 0.75,0.54 1.2,0.87 0.81,0.61 1.55,1.18 2.51,1.76 0.92,0.57 1.77,1.09 2.65,1.63 0.45,0.29 0.87,0.55 1.33,0.87 0.62,0.43 0.91,0.46 0.87,1.12 -0.09,1.56 -0.99,1.74 0.11,3.52 0.56,0.9 1.65,1.54 2.8,1.43 1.18,-0.11 1.85,-1.13 2.01,-2.24 0.25,-1.78 -1.1,-1.35 -0.5,-3.05 -0.95,0.28 -0.68,1.07 -0.81,0.75 -0.01,-0.02 -0.03,0.05 -0.05,0.08 0,-0.83 0.46,-1.07 1.32,-1.19 1.03,-0.13 0.92,-0.03 1.58,-0.7 0.45,-0.44 0.82,-0.65 0.88,-1.57z"/>
   <path class="fil3" d="M25.24 1.92c0.09,0.11 0.78,0.45 1.04,0.64 2.33,1.66 2.77,3.92 3.82,5.35 2.41,3.28 5.29,2.03 7.33,3.53 1.36,1.01 2.07,3.2 1.26,5.26 -0.2,-0.24 -0.04,0.07 -0.13,-0.29 -0.12,-0.44 0.06,-0.93 -0.33,-1.85 -0.75,-1.79 -2.75,-2.54 -4.66,-2.82 -4.62,-0.66 -4.52,-3.81 -5.38,-4.34 -0.03,0.04 0.21,0.4 0.3,0.57 0.15,0.3 0.2,0.43 0.37,0.73 0.56,0.99 1.67,2.19 2.76,2.64 0.1,0.05 0.43,0.19 0.43,0.19 0.04,0.03 0.17,0.14 0.19,0.17l0.2 0.22c-1.45,-0.01 -2.39,-0.52 -3.18,-1.59 -0.11,-0.13 -0.12,-0.21 -0.27,-0.35 0.12,0.54 -0.02,-0.02 0.19,0.44 0.1,0.21 0.08,0.13 0.09,0.26 0,0.23 -0.1,0.07 -0.06,0.66 0.05,0.56 -0.05,1.4 0.16,1.78 -0.47,-0.18 -0.34,-0.3 -0.98,-0.4 0.61,0.19 -0.04,0 0.26,0.26 0.22,0.24 0.26,0.19 0.44,0.33l1.22 1.1c1.91,1.56 2.91,3.75 2.98,6.4 0.78,0.1 0.48,-0.07 0.55,0.41 0.04,0.19 -0.04,0.12 0.14,0.3 0.33,-0.57 3,-1.33 3.81,-4.54 0.3,-1.18 0.02,-1.52 0.02,-2.62 0.04,0.03 0.08,0.06 0.12,0.1l0.21 0.18c0.16,0.19 0.05,0 0.17,0.28 0.05,0.12 0.1,0.45 0.11,0.65 0.13,2.14 -0.23,1.61 -0.68,3.06 -0.36,1.19 -2.44,3.42 -2.8,3.35 0.4,-0.06 0.47,-0.16 0.74,-0.47l1.7 -1.85c0.13,-0.14 0.08,-0.09 0.19,-0.18 0.15,0.39 0.28,1.1 0.46,1.63 0.31,0.85 -0.09,0.98 -0.27,1.45l0.06 0.05c0.09,-0.03 0.17,0.02 0.38,-0.29 0.36,-0.53 0.22,-1 0.03,-1.42 -1.83,-4.21 3.65,-6.87 5.15,-2.47 0.66,1.96 -1.15,2.27 -0.7,3.77l0.57 0.12c-0.02,-0.03 -0.06,-0.05 -0.08,-0.07l-0.14 -0.14c-0.11,-0.13 -0.09,-0.05 -0.16,-0.24 -0.1,-0.29 -0.05,-0.21 0,-0.51 0.45,-0.02 0.31,0.2 0.94,0.28 0.46,0.05 0.79,-0.03 1.27,0.11 0.6,0.19 1.11,0.69 1.35,1.2 0.67,1.39 -0.01,3.02 -0.78,3.77 -1.05,1.01 -2.62,1.05 -3.84,0.12 -1.31,-1.01 -1.18,-2.46 -2.9,-1.72 0.37,0.18 0.51,-0.14 0.97,0.13l-1.09 0.37c1.38,0.59 1.16,-0.06 1.84,0.94 0.46,0.68 0.67,0.63 1.12,0.94 0.15,0.11 0.18,0.17 0.42,0.33 1.44,0.93 3.33,-0.03 4.12,-0.84 0.72,-0.75 0.62,-0.9 0.67,-1.42 0.01,-0.1 -0.03,0.04 0.05,-0.19 0.38,-1.08 0.38,-1.3 -0.01,-2.38 -0.13,-0.33 0.12,-0.69 -1.04,-1.53 -0.65,-0.47 -1.3,-0.54 -2.34,-0.49 0.47,-1.41 1.09,-1.8 -0.26,-4.01 -0.36,-0.57 -0.74,-0.96 -1.51,-1.14 -1.37,-0.3 0.11,-0.33 -2.24,-0.09 -0.07,-1.36 0.28,-2.71 -1.23,-4.26 -2.2,-2.24 -4.36,-1.2 -6.23,-2.45 -2.48,-1.64 -2.31,-3.88 -4.53,-6.09 -0.45,-0.45 -1.44,-1.37 -2.21,-1.46 -0.34,0.46 0.19,-0.45 -0.06,0.21 -0.31,0.83 0.65,-0.35 -0.11,0.23z"/>
   <path class="fil2" d="M6.59 39.98c-0.19,0.12 -0.72,0.95 -0.83,1.17 -0.23,0.44 -0.19,1.04 -0.03,1.5 1.25,3.61 5.76,3.04 5.71,-0.46 -0.02,-1.17 -0.94,-2.06 -0.08,-2.88 1.35,-1.29 6.55,-3.11 7.27,-3.83 -0.23,-0.47 -1.05,-1.65 -1.7,-1.68 -0.54,-0.02 -6,2.83 -7.24,2.9l-2.26 -2.46c-2.67,-1.57 -4.91,1.75 -3,4.47 0.82,1.17 3.2,0.62 2.37,2.02 -0.01,-0.02 -0.03,-0.06 -0.03,-0.08l-0.18 -0.67z"/>
   <path class="fil4" d="M14.48 27.8c-1,-1.22 -0.28,-2.15 -1.23,-2.68 -0.45,-0.25 -2.69,-0.99 -3.94,-1.68 -2.54,-1.4 0.74,-2.78 -0.72,-5.37 -0.35,-0.62 -1.35,-1.43 -2.28,-1.49 -3.44,-0.25 -2.31,3.81 -2.55,4.74 0.24,0.12 -0.1,0.06 0.19,-0.05 0.55,-0.21 -0.2,-0.2 0.16,-0.07 -0.3,0.77 -1.79,0.57 -2.58,1.92 -1.2,2.04 -0.08,5.75 3.18,4.64 2.31,-0.79 1.33,-1.89 2.13,-2.38l-0.68 -0.21c0.95,-0.47 1.7,0.04 2.63,0.38 2.07,0.77 3.89,1.71 5.84,2.71 1.37,0.7 0.92,0.37 1.06,0.23 -0.48,-0.54 -0.71,-0.07 -1.21,-0.69z"/>
   <path class="fil4" d="M37.82 22.61c-0.31,0.47 -0.79,0.61 -1.34,1 0.53,0.75 1.03,0.69 1.58,2.37l0.6 -0.25 0.13 -0.11 1.09 -0.37c-0.46,-0.27 -0.6,0.05 -0.97,-0.13 1.72,-0.74 1.59,0.71 2.9,1.72 1.22,0.93 2.79,0.89 3.84,-0.12 0.77,-0.75 1.45,-2.38 0.78,-3.77 -0.24,-0.51 -0.75,-1.01 -1.35,-1.2 -0.48,-0.14 -0.81,-0.06 -1.27,-0.11 -0.63,-0.08 -0.49,-0.3 -0.94,-0.28 -0.05,0.3 -0.1,0.22 0,0.51 0.07,0.19 0.05,0.11 0.16,0.24l0.14 0.14c0.02,0.02 0.06,0.04 0.08,0.07l-0.57 -0.12c-0.45,-1.5 1.36,-1.81 0.7,-3.77 -1.5,-4.4 -6.98,-1.74 -5.15,2.47 0.19,0.42 0.33,0.89 -0.03,1.42 -0.21,0.31 -0.29,0.26 -0.38,0.29z"/>
   <path class="fil5" d="M15.59 9.94c0.08,-0.41 1.1,-2.47 1.37,-3 0.47,-0.96 0.98,-2.17 1.7,-2.57 1.08,-1.46 3.69,-1.72 5.74,-0.9 1.62,0.65 3.25,2.25 3.79,3.93 0.86,0.53 0.76,3.68 5.38,4.34 1.91,0.28 3.91,1.03 4.66,2.82 0.39,0.92 0.21,1.41 0.33,1.85 0.09,0.36 -0.07,0.05 0.13,0.29 0.81,-2.06 0.1,-4.25 -1.26,-5.26 -2.04,-1.5 -4.92,-0.25 -7.33,-3.53 -1.05,-1.43 -1.49,-3.69 -3.82,-5.35 -0.26,-0.19 -0.95,-0.53 -1.04,-0.64 -2.84,-0.85 -4.56,-0.77 -6.68,0.76 -4.36,3.13 -3.13,8.29 -8.02,8.57 -1.34,0.08 -2.6,0.08 -3.19,0.97 -0.5,0.77 -1.13,2.48 -0.55,3.45 0.55,-0.95 0.54,-1.51 1.44,-2.07 1.72,-1.06 4.59,0.26 6.59,-2.57 0.25,-0.36 0.46,-0.8 0.76,-1.09z"/>
   <path class="fil6" d="M18.66 4.37c0.75,0 0.81,-0.67 1.45,-0.58 0.5,0.16 -0.16,-0.01 0.45,0.69 0.17,0.2 0.13,0.01 0.22,0.33 -0.28,-0.17 -0.09,-0.14 -0.43,-0.17 -0.72,-0.06 0.5,-0.06 -0.24,0.01l-0.2 0.42c1.12,-0.61 0.29,0.64 0.72,1.19l1.43 1.1c1.2,-1 0.74,-0.83 1.47,-1.52 -0.08,-0.46 -0.6,-0.75 -0.06,-1.08 0.52,-0.33 0.66,0.19 0.67,0.59 1.51,-0.25 1.24,1.18 -0.25,0.73 -0.63,0.8 -0.62,0.62 -1.06,1.1 -0.3,0.32 -0.15,0.08 -0.33,0.47 0.35,0.5 1.62,1.25 2.21,1.82 0.37,-0.15 0.4,-0.35 0.75,-0.23 0.25,0.08 0.37,0.3 0.18,0.62 -0.29,0.51 0.07,-0.04 -0.27,0.24 -0.72,0.59 0,0.49 -0.74,0.67 -0.51,-0.35 -0.4,-0.5 -0.44,-1.22l-2.01 -1.57c-0.61,0.32 -1,0.87 -1.41,1.31 -0.6,0.65 -0.11,0.3 -0.19,0.93 -0.08,0.55 -0.4,0.26 -0.7,0.23l-0.38 -0.27c-0.38,0.3 -0.17,-0.15 -0.05,0.2 0.23,0.69 0.83,0.54 1.1,0.52 -0.73,0.69 0.43,-0.09 -0.55,0.34 -0.2,0.1 -0.2,0.08 -0.46,0.15l0.81 -0.05c0.87,-0.02 1.54,-0.22 2.45,-0.1 0.71,0.09 1.45,0.19 2.15,0.31 1.54,0.27 2.42,0.96 3.7,1.43 -0.3,-0.26 0.35,-0.07 -0.26,-0.26 0.64,0.1 0.51,0.22 0.98,0.4 -0.21,-0.38 -0.11,-1.22 -0.16,-1.78 -0.04,-0.59 0.06,-0.43 0.06,-0.66 -0.01,-0.13 0.01,-0.05 -0.09,-0.26 -0.21,-0.46 -0.07,0.1 -0.19,-0.44 0.15,0.14 0.16,0.22 0.27,0.35 0.79,1.07 1.73,1.58 3.18,1.59l-0.2 -0.22c-0.02,-0.03 -0.15,-0.14 -0.19,-0.17 0,0 -0.33,-0.14 -0.43,-0.19 -1.09,-0.45 -2.2,-1.65 -2.76,-2.64 -0.17,-0.3 -0.22,-0.43 -0.37,-0.73 -0.09,-0.17 -0.33,-0.53 -0.3,-0.57 -0.54,-1.68 -2.17,-3.28 -3.79,-3.93 -2.05,-0.82 -4.66,-0.56 -5.74,0.9z"/>
   <path class="fil7" d="M10.08 22.22c0.26,0.21 0.53,0.37 0.78,0.54l1.04 0.67c0.02,0.02 0.05,0.03 0.08,0.05 0.55,0.33 0.4,0.39 1.34,0.47l-0.03 -1.1 -0.24 0.51c-0.03,-0.54 -0.37,-0.51 -0.59,-2.13 -0.25,-1.89 -0.45,-2.6 0.6,-4.41 1.18,-2.03 0.77,-1.05 1.45,-1.96 0.45,-0.6 0.41,-0.44 1,-0.95 0.29,-0.26 1.09,-0.82 1.6,-1.07 1.17,-0.58 2.79,-1.04 4.14,-1.19 3.57,-0.39 8.09,1.51 10.07,4.56 0.87,1.35 0.72,1.01 1.31,2.7 0.18,0.53 0.17,1.63 0.66,1.9 -0.07,-2.65 -1.07,-4.84 -2.98,-6.4l-1.22 -1.1c-0.18,-0.14 -0.22,-0.09 -0.44,-0.33 -1.28,-0.47 -2.16,-1.16 -3.7,-1.43 -0.7,-0.12 -1.44,-0.22 -2.15,-0.31 -0.91,-0.12 -1.58,0.08 -2.45,0.1 -0.04,0.04 -2.68,0.69 -3.16,0.92 -0.5,0.24 -1,0.48 -1.4,0.7 -0.42,0.24 -0.78,0.61 -1.21,0.81 0.08,-0.21 -0.04,-0.35 0.73,-0.72l-0.12 -0.39c-0.28,-0.98 -0.27,-0.03 -0.19,-0.82 0.04,-0.32 0.29,-0.71 0.42,-0.97l-0.12 0.05c-2.96,3.69 -5.47,1.5 -7.36,2.98 -0.41,0.32 -1.12,1.68 -0.95,2.54 0.24,0.41 1.31,0.18 1.98,1.75 1.1,2.59 -1.31,2.23 1.11,4.03z"/>
   <path class="fil8" d="M20.2 12.08l0.18 0.17c0.15,0.07 0.27,-0.08 0.28,0.75l-0.05 1.34c-0.01,0.03 -0.02,0.07 -0.04,0.1 -0.19,0.48 -1.19,0.63 -2.21,1.59l-2.31 1.95c-0.27,0.18 -0.31,0.24 -0.57,0.41 -1.98,1.31 -0.66,0.03 -1.54,1.64 -0.34,0.61 -0.58,0.76 -0.6,1.65 0.36,-0.34 0.36,-0.65 0.73,-1.27 0.23,-0.38 0.59,-0.85 0.86,-1.09 0.67,-0.6 1.74,-1.07 2.34,-1.69 1.04,-1.08 0.54,-0.84 2.13,-1.9 0.39,-0.26 2.14,-1.24 2.72,-1 -1,0.2 -1.43,0.49 -2.24,0.75 0.35,0.36 -0.05,0.16 0.47,0.24l1.28 -0.27c2.03,-0.23 3.56,-0.08 5.44,0.63 1.47,0.56 2.71,1.41 3.69,2.53 0.3,0.34 0.55,0.91 1.13,1.19 -0.11,-1.64 -0.82,-2.34 -1.69,-3.08 -0.47,-0.41 -0.79,-0.68 -1.24,-1.08 -0.52,-0.46 -0.85,-0.64 -1.38,-1 0.71,0.11 2.83,1.87 3.33,2.35 0.89,0.87 1.43,2.54 1.54,4.19 0.62,-0.45 0.52,-0.57 0.12,-1.94 -1.04,-3.55 -3.7,-6.08 -7.29,-7.01 -1.06,-0.27 -4,-0.89 -5.08,-0.15z"/>
   <path class="fil9" d="M33.58 30.8c0.3,-0.85 0.42,-0.98 -0.09,-1.86 -0.69,-1.23 -1.73,-1.84 -1.28,-4.51l0.07 -0.66c0,-0.02 -0.03,-0.04 -0.03,-0.09 0,-0.05 -0.02,-0.07 -0.03,-0.1 -0.71,-0.13 -0.96,1.15 -1.19,1.74 -0.39,0.99 -0.72,1.23 -0.34,2.51 0.72,2.44 2.33,1.49 2.17,3.82 -0.15,-0.54 -0.04,-0.82 -0.43,-1.17 0.03,0.8 0.21,1.02 -0.04,1.88 -0.15,0.49 -0.48,0.93 -0.57,1.43 -0.34,1.8 1.07,2.3 1.68,1.76 0,-0.01 -1.84,-1.39 0.23,-2.69 1.07,-0.67 1.66,-1.12 1.88,-2.64 0.34,-2.4 -1.16,-3.9 -1.79,-5.15 -0.49,-0.97 -0.19,-1.27 -0.77,-1.45 -0.58,0.51 -0.34,1.67 0.09,2.12 0.46,0.48 0.94,0.69 0.8,1.52 -0.15,-0.35 -0.09,-0.46 -0.35,-0.86 -0.68,-1.02 -0.86,-0.37 -0.99,-2.33 -0.22,0.24 -0.12,-0.02 -0.27,0.47 -0.05,0.15 -0.06,0.38 -0.08,0.56 -0.22,3.43 2.65,3.73 1.33,5.7z"/>
   <path class="fil10" d="M18.66 4.37c-0.72,0.4 -1.23,1.61 -1.7,2.57 -0.27,0.53 -1.29,2.59 -1.37,3 0.02,0.45 0.05,0.11 -0.1,0.52 -0.02,0.05 -0.15,0.33 -0.19,0.46l0.12 -0.05c-0.13,0.26 -0.38,0.65 -0.42,0.97 -0.08,0.79 -0.09,-0.16 0.19,0.82l0.12 0.39c-0.77,0.37 -0.65,0.51 -0.73,0.72 0.43,-0.2 0.79,-0.57 1.21,-0.81 0.4,-0.22 0.9,-0.46 1.4,-0.7 0.48,-0.23 3.12,-0.88 3.16,-0.92l-0.81 0.05c0.26,-0.07 0.26,-0.05 0.46,-0.15 0.98,-0.43 -0.18,0.35 0.55,-0.34 -0.27,0.02 -0.87,0.17 -1.1,-0.52 -0.12,-0.35 -0.33,0.1 0.05,-0.2l0.38 0.27 -0.05 -0.46c-0.56,-0.04 -0.57,-0.09 -0.58,-0.65 1.01,-0.28 0.48,0.69 1.49,-0.46 0.36,-0.41 0.82,-0.81 1.11,-1.23 -0.34,-0.49 -1.19,-0.9 -1.42,-1.28 -0.65,0.09 -0.87,0.54 -1.23,-0.19 0.28,-0.75 0.2,0.13 0.71,-1.11l0.2 -0.42c0.74,-0.07 -0.48,-0.07 0.24,-0.01 0.34,0.03 0.15,0 0.43,0.17 -0.09,-0.32 -0.05,-0.13 -0.22,-0.33 -0.61,-0.7 0.05,-0.53 -0.45,-0.69 -0.64,-0.09 -0.7,0.58 -1.45,0.58z"/>
   <path class="fil11" d="M13.34 21.68c0.02,-0.89 0.26,-1.04 0.6,-1.65 0.88,-1.61 -0.44,-0.33 1.54,-1.64 0.26,-0.17 0.3,-0.23 0.57,-0.41l2.31 -1.95c1.02,-0.96 2.02,-1.11 2.21,-1.59 0.02,-0.03 0.03,-0.07 0.04,-0.1l0.05 -1.34c-0.01,-0.83 -0.13,-0.68 -0.28,-0.75l-0.18 -0.17c-0.65,-0.07 -2.31,0.57 -2.96,0.87 -2.29,1.04 -4.89,3.85 -4.77,6.98 0.33,-0.24 0.01,0.06 0.25,-0.24 0.07,-0.08 0.11,-0.17 0.15,-0.26 0.92,-1.84 0.91,-1.02 2.1,-2.28 1.03,-1.08 1.15,-1.53 2.77,-2.24 -0.24,0.31 -1.42,0.98 -1.82,1.36 -0.71,0.7 -0.72,1.02 -1.61,1.68 -1.6,1.18 -2.09,3.21 -1.28,4.57 0.34,-0.33 0.3,-0.63 0.31,-0.84z"/>
   <path class="fil2" d="M13.29 22.85l0.03 1.1c0.1,0.93 0.73,1.62 0.74,1.58 0.01,-0.02 0.04,0.04 0.07,0.06 0.97,-1.41 0.24,-3.13 0.18,-3.62 0.63,0.28 0.46,1.95 0.4,2.6l1.16 -0.69c-0.51,-1.1 -0.51,-1.69 -0.36,-3.04 0.58,-0.58 1.73,-0.75 2.77,-0.79 1.67,-0.07 0.94,0.2 2.12,-1.25 0.56,-0.68 1.07,-1.14 1.66,-1.75 0.61,-0.63 1.69,-1.16 1.96,-1.5 -1.53,-0.13 -2.74,0.07 -4.06,0.48 -1.7,0.53 -1.73,0.83 -2.62,1.91 -0.81,0.97 -3.15,1.05 -4.05,4.91z"/>
   <path class="fil4" d="M15.9 28.22c0.24,0.84 0.75,1.82 0.85,2.74 0.19,1.66 -0.89,1.31 0.42,2.57 1.06,1.01 0.47,0.04 1.72,1.83 0.81,1.14 1.47,0.11 2.79,0.27 0.87,0.1 2.19,0.97 2.72,0.24 0.37,-0.51 0.31,-0.63 0.77,-1.07 2.15,-2.07 1.92,-0.06 1.91,-3.35 0,-1.33 0.39,-1.99 0.53,-3.09 -0.83,-0.01 -1.19,0.04 -1.11,0.98 0.03,0.34 0.13,0.47 0.03,0.84 -0.09,0.34 -0.3,0.43 -0.4,0.61 -0.32,0.6 0.96,4.1 -4.43,2.85 -1.73,-0.4 -1.58,-0.67 -3.3,-0.03l-0.11 -0.22c-0.58,-1.17 -0.06,-0.74 -0.32,-1.64 -0.25,-0.88 -0.63,-0.78 -1.03,-1.28 -0.26,-0.55 0.72,-2.33 -1.04,-2.25z"/>
   <path class="fil12" d="M24.14 24.92c0.74,-0.36 1.4,0.07 2.18,-0.07 0.01,0 0.87,-0.3 0.9,-0.32 0.28,-0.18 0.29,-0.37 0.41,-0.69 0.87,-2.24 0.42,-2.54 -0.1,-3.66 0.44,0.09 0.46,0.2 0.73,0.37 -0.09,-0.28 -0.18,-0.38 -0.32,-0.57 -1.21,-0.16 -0.99,0.84 -2.72,0.01 -1.03,-0.5 -2,-0.34 -2.44,0.47l0.38 0c0.01,0 0.05,0.02 0.06,0 0,-0.02 0.03,-0.01 0.05,0 -0.43,0.81 -0.37,1.94 -0.03,2.73 0.18,0.42 0.37,0.68 0.62,0.98 0.64,0.82 0.07,0.38 0.28,0.75z"/>
   <path class="fil13" d="M34.59 23.61c0.07,0.1 0.11,0.4 0.59,0.71 0.32,0.22 0.44,0.19 0.75,0.34 -0.76,0.07 -1.2,-0.57 -1.57,-1.09 -0.31,-0.42 -0.11,-0.34 -0.6,-0.44 -0.8,1.21 1.54,3.31 1.88,4.83 0.13,0.56 0.14,1.06 0.15,1.67 0.01,2.29 2.46,0.12 2.23,2.93 1.77,-0.53 1.87,-2.76 0.4,-3.18 -0.95,-0.27 -0.64,-0.27 -1.27,-0.6l-0.19 0.83c-0.58,-1.26 1.43,-2.03 0.7,-3.9 -0.56,-1.44 -1.46,-1.77 -3.07,-2.1z"/>
   <path class="fil0" d="M28.36 31.27c-0.39,0.09 -0.35,0.08 -0.6,0.29 0.44,0.15 0.01,-0.05 0.2,0.25l1.54 1.12c0.51,0.31 1.49,1.07 1.96,1.19 0.3,-0.31 1.51,-2.99 0.26,-4.25 -0.88,0.02 -2.24,1.36 -3.36,1.4z"/>
   <path class="fil2" d="M19.91 5.07c-0.51,1.24 -0.43,0.36 -0.71,1.11 0.36,0.73 0.58,0.28 1.23,0.19 0.23,0.38 1.08,0.79 1.42,1.28 -0.29,0.42 -0.75,0.82 -1.11,1.23 -1.01,1.15 -0.48,0.18 -1.49,0.46 0.01,0.56 0.02,0.61 0.58,0.65l0.05 0.46c0.3,0.03 0.62,0.32 0.7,-0.23 0.08,-0.63 -0.41,-0.28 0.19,-0.93 0.41,-0.44 0.8,-0.99 1.41,-1.31l2.01 1.57c0.04,0.72 -0.07,0.87 0.44,1.22 0.74,-0.18 0.02,-0.08 0.74,-0.67 0.34,-0.28 -0.02,0.27 0.27,-0.24 0.19,-0.32 0.07,-0.54 -0.18,-0.62 -0.35,-0.12 -0.38,0.08 -0.75,0.23 -0.59,-0.57 -1.86,-1.32 -2.21,-1.82 0.18,-0.39 0.03,-0.15 0.33,-0.47 0.44,-0.48 0.43,-0.3 1.06,-1.1 1.49,0.45 1.76,-0.98 0.25,-0.73 -0.01,-0.4 -0.15,-0.92 -0.67,-0.59 -0.54,0.33 -0.02,0.62 0.06,1.08 -0.73,0.69 -0.27,0.52 -1.47,1.52l-1.43 -1.1c-0.43,-0.55 0.4,-1.8 -0.72,-1.19z"/>
   <path class="fil4" d="M27.76 31.56c0.25,-0.21 0.21,-0.2 0.6,-0.29 0.5,-0.32 2.71,-1.39 2.95,-1.65 -0.14,-0.38 -0.36,-0.55 -0.57,-0.99l-0.34 -0.88c-0.08,-0.18 -0.08,-0.16 -0.16,-0.25 -0.42,0.33 -0.54,0.56 -1,0.75 -1.24,0.51 -1.67,-0.16 -1.85,3.2 0.22,0.15 -0.31,0.22 0.37,0.11z"/>
   <path class="fil0" d="M34.94 21.98c-0.36,0.51 -0.65,0.44 -0.68,1.08 0.35,0.25 1.24,0.56 1.92,0.4 0.71,-0.16 1.06,-0.65 1.58,-0.9 0.18,-0.47 0.58,-0.6 0.27,-1.45 -0.18,-0.53 -0.31,-1.24 -0.46,-1.63 -0.11,0.09 -0.06,0.04 -0.19,0.18l-1.7 1.85c-0.27,0.31 -0.34,0.41 -0.74,0.47z"/>
   <path class="fil12" d="M22.83 26.71c0.01,-0.33 0.31,-0.23 0.08,-0.98 -0.47,-1.52 -0.31,-2.23 -0.71,-2.95l-0.42 0.19c-0.03,0.01 -0.06,0.03 -0.08,0.05 -0.27,0.17 -0.13,0.02 -0.32,0.3 -0.32,0.5 -0.56,3 -0.46,3.42 0.83,0.21 0.52,-0.11 1.02,-0.13 0.33,-0.01 0.33,0.16 0.89,0.1z"/>
   <path class="fil14" d="M10.08 22.22c-0.41,-0.25 -0.39,-0.25 -0.7,-0.55l-0.6 -0.29c-0.06,-0.15 -0.76,0.65 0.1,1.52 0.69,0.69 3.97,1.84 4.35,1.84 -0.16,-0.67 -0.09,-0.38 -0.72,-0.7l-1.74 -1.2c-0.34,-0.3 -0.3,-0.4 -0.69,-0.62z"/>
   <path class="fil13" d="M33.98 21.52c-0.18,-0.18 -0.1,-0.11 -0.14,-0.3 -0.5,-0.22 -0.32,-0.22 -0.95,-0.17 -0.64,0.84 -0.22,0.69 0.01,1 -0.72,0.18 -0.96,0.15 -0.93,1.12 1.26,0.87 2.19,-0.01 2.01,-1.65z"/>
   <path class="fil10" d="M23.12 18.29c0.45,-0.18 0.74,-0.6 1.31,-0.44 0.92,0.26 0.58,1.25 2.05,0.32 0.31,-0.2 0.39,-0.12 0.68,-0.39 -0.34,-0.18 -0.79,0.05 -1.34,0.02 -0.32,-0.15 -0.78,-1.4 -1.98,-0.45 -0.3,0.24 -0.56,0.5 -0.72,0.94z"/>
   <path class="fil15" d="M18.23 30.72c0.41,0.35 0.66,0.53 1.26,0.37 0.12,-0.3 0.19,-0.69 0.14,-1.1 -0.84,-0.69 -1.46,-0.55 -1.4,0.73z"/>
   <path class="fil15" d="M20.91 31.31c0.17,-0.18 0.1,0.13 0.2,-0.47 0.27,-1.54 -1.62,-1.23 -1.32,0.32 0.37,0.19 0.74,0.37 1.12,0.15z"/>
   <path class="fil15" d="M21.42 30.07c-0.13,0.37 -0.18,0.79 -0.09,1.27 0.38,0.13 0.71,0.22 1.18,0.07 0.29,-1.14 0.02,-1.65 -1.09,-1.34z"/>
   <path class="fil15" d="M22.77 31.08c0.28,0.23 0.98,0.6 1.3,0.17 0.25,-0.35 -0.12,-1 -0.24,-1.29 -0.86,-0.07 -1.19,0.23 -1.06,1.12z"/>
   <path class="fil15" d="M25.13 29.74c-0.72,-0.1 -1.18,0.13 -0.89,0.96 0.22,0.65 0.82,0.4 1.18,0.08 0.08,-0.44 -0.11,-0.76 -0.29,-1.04z"/>
   <path class="fil15" d="M17.93 30.74c0.14,-0.47 0.27,-0.67 0.22,-1.24 -0.28,-0.28 -0.29,-0.42 -0.85,-0.36 -0.4,0.89 -0.36,1.56 0.63,1.6z"/>
   <path class="fil16" d="M26.26 30.51c0.15,-0.44 0.09,-0.71 -0.04,-1.15 -0.41,-0.09 -0.57,-0.04 -0.88,0.11 0.04,1.37 0.66,1.06 0.92,1.04z"/>
   <path class="fil15" d="M22.92 33.65c0.29,0.08 0.65,0.22 0.86,0.01 0.69,-0.72 -1.04,-2.07 -0.86,-0.01z"/>
   <path class="fil16" d="M22.7 33.57c0,-0.55 0.15,-1.17 -0.51,-1.15 -0.59,0.02 -0.49,0.52 -0.47,0.98l0.98 0.17z"/>
   <path class="fil16" d="M21.48 32.4c-0.81,-0.45 -0.99,-0.03 -1.01,0.67 0.39,0.13 0.59,0.28 1.08,0.16l-0.07 -0.83z"/>
   <path class="fil16" d="M24.09 33.69c0.31,0.01 0.55,-0.15 0.79,-0.29l-0.13 -0.85c-0.87,-0.06 -0.8,0.33 -0.66,1.14z"/>
   <path class="fil16" d="M20.24 32.3c-0.65,-0.16 -1.02,-0.16 -0.92,0.69l0.95 0.02 -0.03 -0.71z"/>
   <path class="fil16" d="M18.17 32.52c0.12,0.53 0.05,0.36 0.33,0.78l0.55 -0.22c0.22,-0.9 -0.33,-0.85 -0.88,-0.56z"/>
  </g>
 </g>
</svg>
